HIERARCHY
ROOT joint_Root
{
	OFFSET 0.0 0.0 0.0
	CHANNELS 6 Xposition Yposition Zposition Zrotation Xrotation Yrotation 
	JOINT Hips
	{
		OFFSET 4.5925 91.4895 -427.239
		CHANNELS 6 Xposition Yposition Zposition Zrotation Xrotation Yrotation 
		JOINT Spine
		{
			OFFSET 15.7357 0.0 0.0
			CHANNELS 6 Xposition Yposition Zposition Zrotation Xrotation Yrotation 
			JOINT Chest
			{
				OFFSET 8.98455 -0.406207 0.0
				CHANNELS 6 Xposition Yposition Zposition Zrotation Xrotation Yrotation 
				JOINT Neck
				{
					OFFSET 16.3773 0.0 0.0
					CHANNELS 6 Xposition Yposition Zposition Zrotation Xrotation Yrotation 
					JOINT Head
					{
						OFFSET 6.45672 0.0 0.0
						CHANNELS 6 Xposition Yposition Zposition Zrotation Xrotation Yrotation 
						End Site
						{
							OFFSET 0.0 0.0 0.0
						}
					}
				}
				JOINT Shoulder_L
				{
					OFFSET 12.9942 -0.242716 4.98039
					CHANNELS 6 Xposition Yposition Zposition Zrotation Xrotation Yrotation 
					JOINT UpperArm_L
					{
						OFFSET 5.34809 0.0 0.0
						CHANNELS 6 Xposition Yposition Zposition Zrotation Xrotation Yrotation 
						JOINT LowerArm_L
						{
							OFFSET 24.3286 1.87007e-05 0.0
							CHANNELS 6 Xposition Yposition Zposition Zrotation Xrotation Yrotation 
							JOINT Hand_L
							{
								OFFSET 22.2916 0.0 0.0
								CHANNELS 6 Xposition Yposition Zposition Zrotation Xrotation Yrotation 
								End Site
								{
									OFFSET 0.0 0.0 0.0
								}
							}
						}
					}
				}
				JOINT Shoulder_R
				{
					OFFSET 12.9945 -0.242716 -4.98039
					CHANNELS 6 Xposition Yposition Zposition Zrotation Xrotation Yrotation 
					JOINT UpperArm_R
					{
						OFFSET -5.34813 0.0 0.0
						CHANNELS 6 Xposition Yposition Zposition Zrotation Xrotation Yrotation 
						JOINT LowerArm_R
						{
							OFFSET -24.3289 0.000322201 0.0
							CHANNELS 6 Xposition Yposition Zposition Zrotation Xrotation Yrotation 
							JOINT Hand_R
							{
								OFFSET -22.2915 -0.000108084 0.0
								CHANNELS 6 Xposition Yposition Zposition Zrotation Xrotation Yrotation 
								End Site
								{
									OFFSET 0.0 0.0 0.0
								}
							}
						}
					}
				}
			}
		}
		JOINT UpperLeg_L
		{
			OFFSET -2.19248 -6.46944 0.0
			CHANNELS 6 Xposition Yposition Zposition Zrotation Xrotation Yrotation 
			JOINT LowerLeg_L
			{
				OFFSET 39.0811 0.0 -1.23785e-05
				CHANNELS 6 Xposition Yposition Zposition Zrotation Xrotation Yrotation 
				JOINT Foot_L
				{
					OFFSET 40.9854 0.0 -1.26872e-05
					CHANNELS 6 Xposition Yposition Zposition Zrotation Xrotation Yrotation 
					JOINT Toes_L
					{
						OFFSET 11.7543 0.0 0.0
						CHANNELS 6 Xposition Yposition Zposition Zrotation Xrotation Yrotation 
						End Site
						{
							OFFSET 0.0 0.0 0.0
						}
					}
				}
			}
		}
		JOINT UpperLeg_R
		{
			OFFSET -2.19251 6.46944 0.0
			CHANNELS 6 Xposition Yposition Zposition Zrotation Xrotation Yrotation 
			JOINT LowerLeg_R
			{
				OFFSET -39.0811 -0.00228153 -0.0401928
				CHANNELS 6 Xposition Yposition Zposition Zrotation Xrotation Yrotation 
				JOINT Foot_R
				{
					OFFSET -40.9854 0.0 0.0
					CHANNELS 6 Xposition Yposition Zposition Zrotation Xrotation Yrotation 
					JOINT Toes_R
					{
						OFFSET -11.7543 0.0 0.0
						CHANNELS 6 Xposition Yposition Zposition Zrotation Xrotation Yrotation 
						End Site
						{
							OFFSET 0.0 0.0 0.0
						}
					}
				}
			}
		}
	}
}
MOTION
Frames:	4
Frame Time:	0.0333333
0.000000 0.000000 0.000000 0.000000 0.000000 -0.000000 -2.656090 83.749200 -2.250650 85.372700 -0.336848 11.043200 15.735700 0.000005 -0.000001 83.186900 81.235600 -83.029900 8.984550 -0.406207 -0.000000 9.646460 -2.064600 0.488006 16.377300 -0.000001 -0.000001 -2.617330 -0.697519 0.610710 6.456720 -0.000001 -0.000000 -3.552480 2.188320 0.120760 12.994200 -0.242716 4.980390 -91.408200 4.721730 -73.372700 5.348090 -0.000007 -0.000001 -66.627800 25.234200 -8.342480 24.328600 0.000019 0.000005 11.593000 19.156500 -32.008400 22.291600 -0.000001 0.000005 15.185600 5.212090 2.402780 12.994500 -0.242716 -4.980390 87.622600 11.251400 -77.987000 -5.348130 -0.000001 -0.000004 -61.716900 16.200900 -5.900000 -24.328900 0.000322 -0.000009 -5.304060 -7.184570 -36.579500 -22.291500 -0.000108 -0.000004 16.998300 5.370900 -2.017440 -2.192480 -6.469440 -0.000000 -167.964000 -11.676900 -14.564000 39.081100 -0.000007 -0.000012 -0.278118 0.167399 58.957200 40.985400 -0.000006 -0.000013 2.477120 10.940000 -83.236200 11.754300 -0.000000 0.000003 -0.000186 -0.001744 -16.643500 -2.192510 6.469440 -0.000001 -178.247000 13.772700 167.820000 -39.081100 -0.002282 -0.040193 0.066682 -0.041991 56.508800 -40.985400 0.000008 0.000006 9.111440 6.138230 -83.846700 -11.754300 -0.000006 -0.000006 -0.653350 -0.806457 -16.517800
0.000000 0.000000 0.000000 0.000000 0.000000 -0.000000 -2.829150 86.296400 -1.406350 85.102000 1.443870 10.433100 15.735700 0.000005 -0.000001 82.935000 82.421900 -83.760600 8.984550 -0.406207 -0.000000 7.265160 -1.853720 -1.531740 16.377300 -0.000001 -0.000001 -1.069120 -1.242710 0.594374 6.456720 -0.000001 -0.000000 -2.034160 0.614654 2.128100 12.994200 -0.242716 4.980390 -91.465200 4.610550 -72.347200 5.348090 -0.000007 -0.000001 -67.764500 22.371000 -6.221990 24.328600 0.000019 0.000005 8.265430 15.435500 -28.622400 22.291600 -0.000001 0.000005 15.551800 5.144970 4.062210 12.994500 -0.242716 -4.980390 87.687900 10.342500 -77.324900 -5.348130 -0.000001 -0.000004 -59.528900 12.812700 -6.394640 -24.328900 0.000322 -0.000009 -5.455810 -6.462360 -40.319300 -22.291500 -0.000108 -0.000004 14.243900 5.378640 -2.257750 -2.192480 -6.469440 -0.000000 -168.132000 -10.030700 -11.107200 39.081100 -0.000007 -0.000012 -0.245930 0.199073 51.011600 40.985400 -0.000006 -0.000013 1.694240 11.105700 -79.657900 11.754300 -0.000000 0.000003 -0.000112 -0.001136 -16.621000 -2.192510 6.469440 -0.000001 -178.435000 16.131800 172.053000 -39.081100 -0.002282 -0.040193 0.054574 -0.045962 48.152100 -40.985400 0.000008 0.000006 8.881240 7.576250 -79.938200 -11.754300 -0.000006 -0.000006 -0.699961 -0.861087 -17.014300
0.000000 0.000000 0.000000 0.000000 0.000000 -0.000000 -2.685350 89.017900 -0.844879 85.526600 2.065150 8.007430 15.735700 0.000005 -0.000001 83.297000 84.347600 -85.289400 8.984550 -0.406207 -0.000000 3.443780 -1.242880 -3.943180 16.377300 -0.000001 -0.000001 1.229610 -1.416630 0.669282 6.456720 -0.000001 -0.000000 -0.401838 -0.516142 3.717320 12.994200 -0.242716 4.980390 -91.321600 3.804120 -70.822800 5.348090 -0.000007 -0.000001 -68.466700 20.573300 -3.020100 24.328600 0.000019 0.000005 7.467730 14.356200 -27.862300 22.291600 -0.000001 0.000005 12.681700 5.174630 3.337500 12.994500 -0.242716 -4.980390 87.993100 8.409680 -76.525400 -5.348130 -0.000001 -0.000004 -52.964500 7.580030 -10.579900 -24.328900 0.000322 -0.000009 -4.662710 -4.342920 -47.136300 -22.291500 -0.000108 -0.000004 14.602900 5.410290 -3.259150 -2.192480 -6.469440 -0.000000 -169.367000 -9.876190 -8.280310 39.081100 -0.000007 -0.000012 -0.165913 0.191607 40.889800 40.985400 -0.000006 -0.000013 0.884357 10.975800 -74.822300 11.754300 -0.000000 0.000003 -0.000091 -0.000946 -16.613900 -2.192510 6.469440 -0.000001 -178.729000 17.547300 174.712000 -39.081100 -0.002282 -0.040193 0.037400 -0.043093 38.369600 -40.985400 0.000008 0.000006 8.286330 9.518700 -74.296700 -11.754300 -0.000006 -0.000006 -0.866567 -1.054340 -17.967300
0.000000 0.000000 0.000000 0.000000 0.000000 -0.000000 -2.266360 91.015800 -0.472032 85.604000 2.294510 6.204820 15.735700 0.000005 -0.000001 82.288200 85.833200 -85.055400 8.984550 -0.406207 -0.000000 0.475619 -0.942036 -5.526320 16.377300 -0.000001 -0.000001 3.130010 -0.909488 0.405652 6.456720 -0.000001 -0.000000 0.747185 -0.749762 4.306760 12.994200 -0.242716 4.980390 -91.187100 3.132130 -69.232000 5.348090 -0.000007 -0.000001 -68.313800 18.998600 0.689668 24.328600 0.000019 0.000005 9.556680 16.911900 -30.057900 22.291600 -0.000001 0.000005 8.650450 5.223290 2.115310 12.994500 -0.242716 -4.980390 88.519700 6.133030 -76.403600 -5.348130 -0.000001 -0.000004 -43.325800 -2.609680 -18.197200 -24.328900 0.000322 -0.000009 -5.694030 -3.976670 -55.146000 -22.291500 -0.000108 -0.000004 19.529200 5.477150 -5.538170 -2.192480 -6.469440 -0.000000 -170.150000 -10.218500 -5.305350 39.081100 -0.000007 -0.000012 -0.117164 0.189240 31.763100 40.985400 -0.000006 -0.000013 0.427713 11.002200 -70.482600 11.754300 -0.000000 0.000003 -0.000063 -0.000694 -16.604400 -2.192510 6.469440 -0.000001 -179.215000 20.668400 176.947000 -39.081100 -0.002282 -0.040193 0.026925 -0.040133 30.482700 -40.985400 0.000008 0.000006 7.739260 12.810800 -68.737700 -11.754300 -0.000006 -0.000006 -0.598319 -0.729459 -18.925700
